<svg xmlns="http://www.w3.org/2000/svg" version="1.1" xmlns:xlink="http://www.w3.org/1999/xlink" xmlns:svgjs="http://svgjs.com/svgjs" width="1440" height="560" preserveAspectRatio="none" viewBox="0 0 1440 560"><g mask="url(&quot;#SvgjsMask1000&quot;)" fill="none"><rect width="1440" height="560" x="0" y="0" fill="#0e2a47"></rect><path d="M 0,73 C 57.6,104.8 172.8,234.8 288,232 C 403.2,229.2 460.8,55 576,59 C 691.2,63 748.8,258.4 864,252 C 979.2,245.6 1036.8,46.2 1152,27 C 1267.2,7.8 1382.4,130.2 1440,156L1440 560L0 560z" fill="#184a7e"></path><path d="M 0,341 C 96,366.4 288,467.4 480,468 C 672,468.6 768,344 960,344 C 1152,344 1344,443.2 1440,468L1440 560L0 560z" fill="#2264ab"></path></g><defs><mask id="SvgjsMask1000"><rect width="1440" height="560" fill="#ffffff"></rect></mask></defs></svg>