<svg xmlns="http://www.w3.org/2000/svg" viewBox="0 0 38.9 50"><defs><style>.cls-1{fill:#4af8d5;}</style></defs><g id="Layer_2" data-name="Layer 2"><g id="Layer_1-2" data-name="Layer 1"><path class="cls-1" d="M38.78,42.5,32.16,27.86l-.39.25a1,1,0,0,0-.33.33l-1.67,2.61a2.93,2.93,0,0,1-2.36,1.37l-3.1.13a1.11,1.11,0,0,0-.45.12l-.43.23-3.1,6.85L24.6,49.2a1.34,1.34,0,0,0,2.32.21l3.24-4.65c.37-.5.84-.76,1.15-.58l6.2.22A1.35,1.35,0,0,0,38.78,42.5Z"/><path class="cls-1" d="M21.1,34.12a3.05,3.05,0,0,1-1.36.32,2.94,2.94,0,0,1-1.36-.33l-.78-.41-2-1a1,1,0,0,0-.44-.12l-3.11-.13a3,3,0,0,1-2.36-1.37L8,28.44a1.26,1.26,0,0,0-.32-.33l-.86-.54L.12,42.51a1.34,1.34,0,0,0,1.22,1.9h0l6.19-.21h0a1.33,1.33,0,0,1,1.1.57L12,49.42a1.34,1.34,0,0,0,2.33-.21L19.44,37.8l1.67-3.68Z"/><path class="cls-1" d="M4.89,19.79a2.51,2.51,0,0,1,.3,1.13L5.33,24A1.33,1.33,0,0,0,6,25.09l.2.13.68.43.69.44,1.05.66a2.71,2.71,0,0,1,.82.83l1.67,2.61a1.31,1.31,0,0,0,1.07.63l3.1.13a2.75,2.75,0,0,1,1.13.3l.16.09,2.59,1.34a1.24,1.24,0,0,0,.62.15,1.26,1.26,0,0,0,.62-.15l1.82-.94.93-.49a1.45,1.45,0,0,1,.22-.09,2.81,2.81,0,0,1,.91-.21h.07l3-.14a1.33,1.33,0,0,0,1.07-.62l1.67-2.62a2.67,2.67,0,0,1,.82-.82l.59-.38,2-1.28A1.4,1.4,0,0,0,34.13,24l.13-3.1a2.75,2.75,0,0,1,.3-1.12L36,17a1.28,1.28,0,0,0,0-1.23L34.57,13a2.75,2.75,0,0,1-.3-1.12l-.13-3.1a1.37,1.37,0,0,0-.63-1.08L30.9,6.08a2.71,2.71,0,0,1-.83-.82L28.41,2.64A1.36,1.36,0,0,0,27.33,2l-3.1-.14a2.75,2.75,0,0,1-1.12-.3L20.35.15A1.35,1.35,0,0,0,19.73,0a1.38,1.38,0,0,0-.62.15L16.36,1.58a2.75,2.75,0,0,1-1.13.3L12.13,2a1.33,1.33,0,0,0-1.07.62L9.39,5.26a2.67,2.67,0,0,1-.82.82L6,7.74a1.36,1.36,0,0,0-.62,1.08l-.14,3.1A2.47,2.47,0,0,1,4.89,13L3.46,15.8a1.36,1.36,0,0,0,0,1.24ZM20,8.93a7.22,7.22,0,0,1,7.28,7.25,7.47,7.47,0,0,1-7.12,7.51,7.32,7.32,0,0,1-7.22-7.35A7.14,7.14,0,0,1,20,8.93Z"/></g></g></svg>