<svg xmlns="http://www.w3.org/2000/svg" viewBox="0 0 50.21 50"><defs><style>.cls-1{fill:#4af8d5;}</style></defs><g id="Layer_2" data-name="Layer 2"><g id="Layer_1-2" data-name="Layer 1"><path class="cls-1" d="M25.26,0c.79.29,1.6.53,2.36.87Q37.67,5.42,47.69,10c1.21.55,2.55,1.05,2.46,2.72-.08,1.49-1.33,1.94-2.44,2.45-6.78,3.08-13.57,6.14-20.32,9.25a5.1,5.1,0,0,1-4.6,0C16,21.27,9.08,18.16,2.21,15.05,1,14.52-.06,14,0,12.46c.07-1.33,1.12-1.84,2.19-2.33Q12.63,5.42,23.05.67A4.78,4.78,0,0,1,25.26,0Z"/><path class="cls-1" d="M24.75,37.56c-.48-.17-1.21-.35-1.88-.65Q12.7,32.31,2.55,27.68C1.37,27.14,0,26.69,0,25s1.47-2,2.59-2.65a7.82,7.82,0,0,1,8.65-.13c3.33,1.92,7,3.21,10.5,4.87a7.21,7.21,0,0,0,6.51.08c4.28-2,8.57-3.9,12.87-5.83,1.94-.87,7.48.69,8.62,2.45.82,1.26.58,2.51-.73,3.12-7.6,3.54-15.24,7-22.87,10.44A5.69,5.69,0,0,1,24.75,37.56Z"/><path class="cls-1" d="M24.69,50c-.47-.16-1.19-.36-1.87-.66Q12.65,44.74,2.51,40.11c-1.2-.55-2.56-1-2.5-2.7s1.54-1.92,2.63-2.62c2.9-1.87,5.61-1.72,8.64,0,3.37,1.87,7,3.21,10.51,4.85a7.21,7.21,0,0,0,6.51,0c4.27-2,8.57-3.91,12.87-5.83,1.92-.86,7.51.76,8.61,2.51A2,2,0,0,1,49,39.41c-7.6,3.54-15.24,7-22.87,10.43A5.52,5.52,0,0,1,24.69,50Z"/></g></g></svg>