<svg xmlns="http://www.w3.org/2000/svg" viewBox="0 0 62.68 50"><defs><style>.cls-1{fill:#4af8d5;}</style></defs><g id="Layer_2" data-name="Layer 2"><g id="Layer_1-2" data-name="Layer 1"><path class="cls-1" d="M31.6,0Q44.38,0,57.16,0c3.88,0,5.49,1.61,5.5,5.52q0,14.74,0,29.51c0,3.92-1.73,5.71-5.72,5.75-6.62.07-13.25,0-19.88,0-1,0-2.39-.52-2.43,1.41S36,43.69,37,43.69c4.54,0,9.09.12,13.63,0,2.43-.07,2.81,1.12,2.8,3.14S53.13,50,50.67,50Q31.36,49.86,12,50c-2.42,0-2.81-1.12-2.8-3.14S9.53,43.6,12,43.67c4.63.14,9.28,0,13.92,0,1,0,2.13.28,2.13-1.42S27,40.82,25.94,40.82c-6.44,0-12.88,0-19.32,0C1.56,40.79,0,39.24,0,34.23q0-14,0-28.09C0,1.43,1.42,0,6,0Zm-.38,34.13c7.48,0,15-.06,22.44,0,1.85,0,2.68-.33,2.64-2.44-.12-7.76-.09-15.51,0-23.27,0-1.76-.53-2.24-2.26-2.23q-22.72.09-45.44,0c-1.8,0-2.22.59-2.21,2.28q.12,11.64,0,23.27c0,1.85.52,2.42,2.4,2.4C16.26,34.07,23.74,34.12,31.22,34.13Z"/></g></g></svg>