<svg xmlns="http://www.w3.org/2000/svg" version="1.1" xmlns:xlink="http://www.w3.org/1999/xlink" xmlns:svgjs="http://svgjs.com/svgjs" width="1440" height="560" preserveAspectRatio="none" viewBox="0 0 1440 560"><g mask="url(&quot;#SvgjsMask4141&quot;)" fill="none"><rect width="1440" height="560" x="0" y="0" fill="url(#SvgjsLinearGradient4142)"></rect><path d="M 0,16 C 57.6,57.2 172.8,200.8 288,222 C 403.2,243.2 460.8,135 576,122 C 691.2,109 748.8,175.4 864,157 C 979.2,138.6 1036.8,30.4 1152,30 C 1267.2,29.6 1382.4,130 1440,155L1440 560L0 560z" fill="rgba(0, 16, 124, 1)"></path><path d="M 0,531 C 96,499 288,375.4 480,371 C 672,366.6 768,510 960,509 C 1152,508 1344,394.6 1440,366L1440 560L0 560z" fill="rgba(5, 3, 100, 0.98)"></path></g><defs><mask id="SvgjsMask4141"><rect width="1440" height="560" fill="#ffffff"></rect></mask><linearGradient x1="50%" y1="0%" x2="50%" y2="100%" gradientUnits="userSpaceOnUse" id="SvgjsLinearGradient4142"><stop stop-color="#0e2a47" offset="0"></stop><stop stop-color="rgba(108, 187, 255, 1)" offset="1"></stop></linearGradient></defs></svg>