<svg xmlns="http://www.w3.org/2000/svg" version="1.1" xmlns:xlink="http://www.w3.org/1999/xlink" xmlns:svgjs="http://svgjs.com/svgjs" width="1440" height="560" preserveAspectRatio="none" viewBox="0 0 1440 560"><g mask="url(&quot;#SvgjsMask1068&quot;)" fill="none"><rect width="1440" height="560" x="0" y="0" fill="url(#SvgjsLinearGradient1069)"></rect><path d="M 0,213 C 57.6,192.8 172.8,102.4 288,112 C 403.2,121.6 460.8,261.6 576,261 C 691.2,260.4 748.8,120.4 864,109 C 979.2,97.6 1036.8,215.4 1152,204 C 1267.2,192.6 1382.4,82.4 1440,52L1440 560L0 560z" fill="rgba(0, 16, 124, 1)"></path><path d="M 0,281 C 96,328.8 288,518 480,520 C 672,522 768,306.4 960,291 C 1152,275.6 1344,412.6 1440,443L1440 560L0 560z" fill="rgba(5, 3, 100, 0.98)"></path></g><defs><mask id="SvgjsMask1068"><rect width="1440" height="560" fill="#ffffff"></rect></mask><linearGradient x1="50%" y1="0%" x2="50%" y2="100%" gradientUnits="userSpaceOnUse" id="SvgjsLinearGradient1069"><stop stop-color="#0e2a47" offset="0"></stop><stop stop-color="rgba(108, 187, 255, 1)" offset="1"></stop></linearGradient></defs></svg>