<svg xmlns="http://www.w3.org/2000/svg" version="1.1" xmlns:xlink="http://www.w3.org/1999/xlink" xmlns:svgjs="http://svgjs.com/svgjs" width="4000" height="1000" preserveAspectRatio="none" viewBox="0 0 4000 1000"><g mask="url(&quot;#SvgjsMask1098&quot;)" fill="none"><rect width="4000" height="1000" x="0" y="0" fill="url(#SvgjsLinearGradient1099)"></rect><path d="M 0,188 C 160,250.2 480,493 800,499 C 1120,505 1280,231.6 1600,218 C 1920,204.4 2080,470.8 2400,431 C 2720,391.2 2880,7.2 3200,19 C 3520,30.8 3840,395.8 4000,490L4000 1000L0 1000z" fill="rgba(0, 16, 124, 1)"></path><path d="M 0,600 C 266.8,634 800.4,779.2 1334,770 C 1867.6,760.8 2134.8,511.6 2668,554 C 3201.2,596.4 3733.6,896.4 4000,982L4000 1000L0 1000z" fill="rgba(5, 3, 100, 0.98)"></path></g><defs><mask id="SvgjsMask1098"><rect width="4000" height="1000" fill="#ffffff"></rect></mask><linearGradient x1="50%" y1="0%" x2="50%" y2="100%" gradientUnits="userSpaceOnUse" id="SvgjsLinearGradient1099"><stop stop-color="#0e2a47" offset="0"></stop><stop stop-color="rgba(108, 187, 255, 1)" offset="1"></stop></linearGradient></defs></svg>